<svg xmlns="http://www.w3.org/2000/svg" viewBox="0 0 185.2 179.8">
  <path fill="none" stroke="#1e40af" stroke-linecap="round" stroke-width="4" d="M147.6 33.8c8 5.7 12.3 16.7 16 26.3a80.7 80.7 0 0 1 6.4 31 88.8 88.8 0 0 1-8.2 33.2 78.3 78.3 0 0 1-81.5 44.4 78.2 78.2 0 0 1-55.4-31.6c-6.1-8.8-9.6-20-11.8-30.9a80.7 80.7 0 0 1-1.5-33.7 85.7 85.7 0 0 1 17-30.1A67 67 0 0 1 51 23c9.4-4.8 23.3-8.5 34.2-9.6 10.8-1 17.2-6.7 30.9 3.2 13.6 10 42.2 40.5 50.8 56.3 8.7 15.8 1.8 39 1 38.7M78.2 14a73 73 0 0 1 36.1 1.2c11 3.1 22 10.9 29.8 17.8 7.9 6.9 12.8 14 17.3 23.6 4.6 9.6 10 22.5 10 33.6.1 11.1-5.3 23.3-9.5 33-4.2 9.6-8 17.6-15.6 25a89.6 89.6 0 0 1-30 19.4C106 171 94.9 170 84 169.3c-10.8-.9-22.3-1.1-32.5-6.7-10-5.7-21.5-18-28.3-27.1a65.9 65.9 0 0 1-12-27.7c-2-10-2.7-21.8 0-32.2 2.7-10.4 10-21 16.1-30 6.2-9.1 12.5-19 21.1-24.3 8.7-5.2 25.8-6.3 31-7.4 5-1.1-.2-.3-.2.8"/>
  <path fill="none" stroke="#1e40af" stroke-linecap="round" stroke-width="4" d="M118 15.6c9.9 2.5 19 10 27 17.4 8.2 7.4 17 17.5 21.8 26.9a56.3 56.3 0 0 1 7 29.6c-.6 10.8-6.1 24.9-10.8 34.9a68.6 68.6 0 0 1-17.6 25.1 92.3 92.3 0 0 1-31.6 16.4 77 77 0 0 1-32.9 1.8 97.8 97.8 0 0 1-30.1-12.3c-9.4-5.2-19.7-10.6-26.1-19A75.6 75.6 0 0 1 11.9 105a97 97 0 0 1 .8-34.8c2.2-10.3 5.8-18 12.4-26.6a105 105 0 0 1 27.5-25c9.7-5.4 15.6-10.4 31.2-8A231.6 231.6 0 0 1 146.6 33 42.3 42.3 0 0 1 163.8 61m-21.6-35.4c8.4 5.6 14.7 17.6 19.7 28 5 10.5 9.3 24 10.2 34.7a64 64 0 0 1-5 29.8 93.3 93.3 0 0 1-18.2 29 72.4 72.4 0 0 1-27.3 17.6 91.8 91.8 0 0 1-35.6 5.2 70.5 70.5 0 0 1-29-11c-9.7-5.4-21.7-13.9-29.3-22-7.7-8-13.7-15.9-16.7-26-3-10.3-3.2-25-1.1-35.3 2-10.2 7.2-17.4 13.3-26.2 6.2-8.7 14.1-20.2 23.7-26.2s23-8 33.8-10c10.8-1.8 21-3.8 31-1.2 10 2.5 23.6 13.8 28.6 16.4 5 2.7 1.7-2 1-.6"/>
  <path fill="none" stroke="#1e40af" stroke-linecap="round" stroke-width="4" d="M43 26.6C50 19 62.6 14.4 73.5 12c10.8-2.3 23.6-1.2 34.2.4a80.3 80.3 0 0 1 29.5 9c9 5.4 19 13.6 25 22.6 6 9 9.4 20.4 11.2 31.5 1.9 11 2.7 24.4-.3 35A81.8 81.8 0 0 1 156 139a74.6 74.6 0 0 1-23 19.6 90.7 90.7 0 0 1-65.5 5 79 79 0 0 1-28.7-17.7c-8.1-8-16-19.9-19.8-29.7-3.8-9.9-3.4-18.6-3-29.4.2-10.8-2.5-24 4.7-35.5 7-11.5 29-27.5 38-33.8 9-6.2 15-4.6 15.7-3.6m54.7 4c10 2.6 15.7 10.6 23.2 18.4 7.6 7.8 18.3 18.6 22 28.4 3.6 9.9 1.7 19.9-.3 30.6-1.9 10.7-5.7 24-11.2 33.8-5.6 9.8-13 19-22 25-9 5.8-21.6 7.9-32.1 10.2-10.5 2.3-20.1 5.7-30.7 3.7a83 83 0 0 1-32.7-15.7c-8.6-7-13.5-16.8-18.8-26.1-5.3-9.3-12-19-13-29.6-1-10.5 3.3-23.3 6.7-33.8C23.6 52.3 27 41.5 34 34c7-7.6 19-13 28.8-16.9a80.5 80.5 0 0 1 30-6.3c10.4 0 26.1 5 32 6.6 5.9 1.5 4 1.2 3.3 2.6"/>
</svg>